<?xml version="1.0" standalone="no"?>
<!DOCTYPE svg PUBLIC "-//W3C//DTD SVG 20010904//EN"
 "http://www.w3.org/TR/2001/REC-SVG-20010904/DTD/svg10.dtd">
<svg version="1.0" xmlns="http://www.w3.org/2000/svg"
 width="917.000000pt" height="750.000000pt" viewBox="0 0 917.000000 750.000000"
 preserveAspectRatio="xMidYMid meet">

<g transform="translate(0.000000,750.000000) scale(0.100000,-0.100000)"
fill="#000000" stroke="none">
<path d="M0 3750 l0 -3750 4585 0 4585 0 0 3750 0 3750 -4585 0 -4585 0 0
-3750z m2780 2857 c0 -8 -54 -37 -127 -67 -427 -179 -1129 -590 -1247 -731
-33 -39 -22 -51 40 -42 27 3 44 1 49 -6 11 -18 1 -23 -54 -29 -43 -4 -53 -1
-75 21 -14 15 -26 30 -26 35 0 26 71 100 154 162 253 188 688 427 1066 588
220 93 220 93 220 69z m-716 -526 c-4 -14 -47 -154 -96 -311 -94 -300 -168
-555 -213 -730 -33 -126 -41 -143 -51 -116 -8 21 27 172 113 489 56 207 197
668 214 700 15 28 41 3 33 -32z m2911 -47 c379 -53 753 -214 1055 -454 103
-82 296 -279 368 -374 42 -56 50 -72 40 -82 -23 -22 -359 -264 -366 -264 -4 0
-17 15 -28 33 -44 67 -175 206 -265 282 -539 452 -1276 538 -1897 221 -461
-236 -785 -658 -899 -1171 -31 -139 -42 -421 -23 -572 93 -746 670 -1348 1419
-1480 70 -13 151 -17 296 -17 177 0 214 3 326 27 69 15 166 40 215 57 131 45
335 150 443 227 112 81 259 218 340 319 l59 72 186 -135 c102 -74 186 -139
186 -145 0 -5 -28 -44 -62 -86 -301 -368 -707 -629 -1158 -744 -204 -51 -303
-63 -550 -62 -250 0 -383 17 -588 76 -737 211 -1300 772 -1513 1509 -61 210
-74 317 -74 599 0 276 7 334 65 556 166 641 631 1183 1245 1449 235 102 454
154 745 179 79 7 322 -4 435 -20z m-1375 -52 c0 -5 -19 -14 -42 -21 -54 -16
-196 -87 -280 -140 -91 -57 -120 -54 -134 17 -4 18 -10 32 -15 32 -12 0 -73
-84 -106 -147 -28 -53 -40 -62 -59 -43 -8 8 -6 31 4 76 24 109 9 99 -85 -53
-28 -46 -53 -89 -55 -95 -3 -7 -12 -9 -22 -5 -15 6 -17 14 -13 42 l6 35 -38
-47 c-44 -57 -107 -113 -124 -113 -25 0 -54 30 -61 61 l-6 31 -54 -50 c-30
-27 -63 -52 -73 -54 -25 -7 -62 8 -69 27 -5 11 -24 -1 -78 -51 -124 -116 -204
-148 -253 -102 -42 39 -25 113 43 188 21 23 51 48 67 56 25 14 31 14 53 -1 13
-8 24 -22 24 -29 0 -20 -72 -82 -113 -97 -37 -13 -57 -43 -57 -86 0 -23 3 -24
28 -18 84 21 267 178 324 277 33 58 108 110 152 106 40 -4 44 -23 7 -36 -59
-21 -145 -115 -165 -179 -24 -79 127 60 198 181 40 69 47 74 64 54 7 -9 1 -39
-20 -101 -16 -49 -28 -100 -26 -115 3 -25 5 -24 67 33 78 73 144 171 166 248
17 58 23 65 42 46 7 -7 8 -21 2 -42 -14 -50 -11 -51 30 -14 43 39 73 40 92 5
10 -18 13 -17 48 21 21 23 43 41 48 41 22 0 62 -42 65 -68 5 -42 30 -38 112
17 120 81 204 120 259 121 26 0 47 -4 47 -8z m-726 -4968 c20 -110 36 -203 36
-207 0 -4 -13 -7 -29 -7 -33 0 -33 -1 -52 133 -7 48 -15 87 -19 87 -3 0 -30
-52 -60 -115 -29 -64 -56 -112 -60 -108 -4 4 -29 58 -56 120 -27 62 -52 107
-55 100 -4 -7 -15 -58 -24 -114 -18 -102 -18 -103 -47 -103 -15 0 -28 3 -28 8
-1 22 76 402 81 402 4 0 32 -60 64 -132 32 -73 61 -139 65 -146 4 -8 34 47 75
138 37 82 69 149 71 148 1 -2 19 -93 38 -204z m1310 0 c20 -110 36 -203 36
-207 0 -4 -13 -7 -29 -7 -33 0 -33 -1 -52 133 -7 48 -15 87 -19 87 -4 0 -31
-52 -60 -115 -29 -64 -57 -112 -61 -108 -4 4 -29 59 -55 120 -27 64 -51 108
-55 100 -4 -6 -15 -58 -24 -114 -18 -102 -18 -103 -47 -103 -15 0 -28 3 -28 8
-1 23 75 402 81 402 3 0 35 -66 70 -146 58 -133 64 -143 75 -122 6 13 37 80
69 151 32 70 59 126 61 124 1 -1 19 -92 38 -203z m-724 156 l0 -30 -80 0 -80
0 0 -45 0 -44 78 -3 c76 -3 77 -3 80 -30 l3 -28 -80 0 -81 0 0 -65 0 -65 80 0
80 0 0 -30 0 -30 -110 0 -110 0 0 200 0 200 110 0 110 0 0 -30z m1202 20 c20
-6 46 -22 58 -37 23 -30 27 -90 6 -118 -12 -16 -10 -21 15 -42 37 -31 46 -80
24 -126 -23 -48 -66 -67 -154 -67 l-71 0 0 200 0 200 43 0 c23 0 59 -5 79 -10z
m678 -20 l0 -30 -80 0 -80 0 0 -45 0 -45 75 0 75 0 0 -30 0 -30 -75 0 -75 0 0
-65 0 -65 80 0 80 0 0 -30 0 -30 -110 0 -110 0 0 200 0 200 110 0 110 0 0 -30z
m516 7 c53 -27 70 -101 37 -158 -10 -16 -20 -29 -23 -29 -4 0 -14 -6 -25 -13
-17 -13 -15 -19 38 -90 32 -42 57 -79 57 -82 0 -3 -15 -5 -34 -5 -31 0 -38 6
-88 80 -29 43 -56 79 -60 80 -5 0 -8 -36 -8 -80 l0 -80 -30 0 -30 0 0 201 0
202 68 -5 c37 -3 81 -12 98 -21z m553 -3 c37 -31 38 -38 9 -51 -18 -8 -29 -6
-51 11 -26 19 -30 19 -55 5 -54 -30 -39 -67 40 -101 68 -29 98 -68 98 -125 0
-38 -5 -50 -33 -78 -64 -64 -160 -52 -202 27 -22 41 -21 44 18 53 21 6 27 4
27 -9 0 -25 37 -56 67 -56 49 0 76 45 57 95 -4 10 -35 30 -69 45 -72 33 -95
59 -95 113 0 59 43 97 108 97 40 0 57 -6 81 -26z"/>
<path d="M2142 5564 l-37 -36 33 19 c19 10 38 26 43 36 15 26 2 21 -39 -19z"/>
<path d="M4600 1084 l0 -55 32 3 c23 2 37 11 47 29 13 24 13 29 -2 53 -12 18
-26 26 -47 26 -30 0 -30 -1 -30 -56z"/>
<path d="M4608 974 c-5 -4 -8 -31 -8 -61 l0 -53 43 0 c99 0 104 100 6 116 -19
3 -37 2 -41 -2z"/>
<path d="M5750 1074 c0 -56 2 -65 16 -60 9 3 24 6 34 6 49 0 69 76 28 104 -12
9 -35 16 -50 16 -28 0 -28 -1 -28 -66z"/>
</g>
</svg>
